<?xml version="1.0" encoding="utf-8"?>
<!-- Generator: Adobe Illustrator 16.0.0, SVG Export Plug-In . SVG Version: 6.00 Build 0)  -->
<svg version="1.2" baseProfile="tiny" id="Layer_1" xmlns="http://www.w3.org/2000/svg" xmlns:xlink="http://www.w3.org/1999/xlink"
	 x="0px" y="0px" width="500px" height="100px" viewBox="0 0 500 100" xml:space="preserve">
<text transform="matrix(1 0 0 1 100 73)" fill="#FFFFFF" font-family="'Arial'" font-size="72">R</text>
<text transform="matrix(1 0 0 1 147 73)" fill="#FFFFFF" font-family="'Arial'" font-size="72">e</text>
<text transform="matrix(1 0 0 1 182 73)" fill="#FFFFFF" font-family="'Arial'" font-size="72">a</text>
<text transform="matrix(1 0 0 1 218 73)" fill="#FFFFFF" font-family="'Arial'" font-size="72">d</text>
<text transform="matrix(1 0 0 1 253 73)" fill="#FFFFFF" font-family="'Arial'" font-size="72">m</text>
<text transform="matrix(1 0 0 1 310 73)" fill="#FFFFFF" font-family="'Arial'" font-size="72">e</text>
<text transform="matrix(1 0 0 1 346 73)" fill="#3FA9F5" font-family="'Arial'" font-size="24">c</text>
<text transform="matrix(1 0 0 1 357 73)" fill="#3FA9F5" font-family="'Arial'" font-size="24">o</text>
<text transform="matrix(1 0 0 1 370 73)" fill="#3FA9F5" font-family="'Arial'" font-size="24">o</text>
<text transform="matrix(1 0 0 1 383 73)" fill="#3FA9F5" font-family="'Arial'" font-size="24">k</text>
<text transform="matrix(1 0 0 1 395 73)" fill="#3FA9F5" font-family="'Arial'" font-size="24">i</text>
<text transform="matrix(1 0 0 1 400 73)" fill="#3FA9F5" font-family="'Arial'" font-size="24">e</text>
<text transform="matrix(1 0 0 1 412 73)" fill="#3FA9F5" font-family="'Arial'" font-size="24">.</text>
<text transform="matrix(1 0 0 1 417 73)" fill="#3FA9F5" font-family="'Arial'" font-size="24">c</text>
<text transform="matrix(1 0 0 1 428 73)" fill="#3FA9F5" font-family="'Arial'" font-size="24">o</text>
<text transform="matrix(1 0 0 1 441 73)" fill="#3FA9F5" font-family="'Arial'" font-size="24">m</text>
<polygon fill="#3FA9F5" points="16.834,88 5.809,69.5 16.834,51 38.885,51 49.91,69.5 38.885,88 "/>
<polygon fill="#FFF" points="55.813,65 44.788,46.5 55.813,28 77.864,28 88.889,46.5 77.864,65 "/>
<polygon fill="#3FA9F5" points="16.136,45 5.111,26.5 16.136,8 38.187,8 49.212,26.5 38.187,45 "/>
</svg>
