<svg id="svg-source" version="1.1" 
  xmlns="http://www.w3.org/2000/svg" 
  xmlns:xlink="http://www.w3.org/1999/xlink"
  width="32px" height="32px" xml:space="preserve">
  <style>
  	g {
  		display:none;
  	}
  	g:target {
  		display:block;
  	}
  	path {
  		fill:#fff;
  	}
  </style>
  <g id="arrow-left">
    <path d="M14.677,16.011L24.723,5.964c0.37-0.369,0.37-0.97,0-1.339l-3.349-3.349
        c-0.37-0.369-0.97-0.369-1.34,0L9.321,11.99c0,0-0.001,0.001-0.002,0.001l-3.349,3.35c-0.37,0.369-0.37,0.968,0,1.34
        l14.063,14.062c0.371,0.371,0.971,0.371,1.34,0l3.349-3.348c0.37-0.369,0.37-0.969,0-1.34L14.677,16.011z"></path>
  </g>
  <g id="menu">
    <g>
      <g>
        <path d="M2.081,8.724h27.838C31.068,8.724,32,7.791,32,6.643c0-1.149-0.932-2.08-2.081-2.08H2.081C0.932,4.562,0,5.493,0,6.643
			C0,7.791,0.932,8.724,2.081,8.724z"></path>
      </g>
      <g>
        <path d="M29.919,13.918H2.081C0.932,13.918,0,14.851,0,15.999c0,1.15,0.932,2.081,2.081,2.081h27.838
			c1.149,0,2.081-0.931,2.081-2.081C32,14.851,31.068,13.918,29.919,13.918z"></path>
      </g>
      <g>
        <path d="M29.919,23.276H2.081C0.932,23.276,0,24.207,0,25.357c0,1.147,0.932,2.08,2.081,2.08h27.838
			c1.149,0,2.081-0.933,2.081-2.08C32,24.207,31.068,23.276,29.919,23.276z"></path>
      </g>
    </g>
  </g>
  <g id="home">
      <path d="M31.734,17.936L16.682,2.881c-0.179-0.179-0.422-0.279-0.674-0.279c-0.253,0-0.496,0.1-0.674,0.279L0.279,17.936
		c-0.373,0.372-0.373,0.976,0,1.348c0.372,0.372,0.857,0.372,1.229,0l2.881-3.001v11.924c0,0.526,0.666,1.191,1.192,1.191h6.663
		h7.626h6.683c0.527,0,0.715-0.665,0.715-1.191V16.402l3,2.881c0.188,0.186,0.49,0.279,0.734,0.279s0.518-0.093,0.703-0.279
		C32.078,18.911,32.107,18.307,31.734,17.936z M18.688,27.492h-5.72v-6.435c0-0.789,0.87-1.192,1.658-1.192h2.859
		c0.789,0,1.202,0.403,1.202,1.192V27.492z M25.361,27.492h-4.766v-6.435c0-1.84-1.27-3.099-3.109-3.099h-2.859
		c-1.84,0-3.564,1.259-3.564,3.099v6.435H6.296V14.384c0-0.002,0.118-0.004,0.118-0.007l9.414-9.474l9.533,9.592V27.492z"></path>
  </g>
  <g id="blog">
   	<path d="M31.351,30.181H5.593l4.317-1.37c0.587-0.052,1.161-0.29,1.61-0.738L30.199,9.394c1.013-1.013,1.012-2.66,0-3.674
		l-4.44-4.439c-1.014-1.014-2.662-1.014-3.674,0L3.406,19.958c-0.449,0.448-0.688,1.022-0.738,1.61l-2.609,8.227
		c-0.143,0.461-0.019,0.962,0.322,1.303c0.213,0.214,0.49,0.33,0.78,0.362c0.034,0.005,0.064,0.02,0.1,0.02h30.09
		c0.359,0,0.649-0.291,0.649-0.649C32,30.471,31.71,30.181,31.351,30.181z M23.922,3.117l4.44,4.439l-18.22,18.22l-4.44-4.44
		L23.922,3.117z M4.983,22.672c0.019-0.061,0.026-0.121,0.036-0.182l3.968,3.969c-0.06,0.009-0.121,0.018-0.181,0.036L3.27,28.21
		L4.983,22.672z"></path>
  </g>
</svg>